<?xml version="1.0" encoding="UTF-8"?>
<svg xmlns="http://www.w3.org/2000/svg" xmlns:xlink="http://www.w3.org/1999/xlink"
     width="500" height="400" viewBox="0 0 500 400">
<defs>
</defs>
<rect x="105.0" y="5" width="20.76923076923077" height="390.0" fill="orange" fill-opacity="0.5" />
<rect x="166.53846153846155" y="5" width="20.76923076923077" height="390.0" fill="orange" fill-opacity="0.5" />
<rect x="228.0769230769231" y="5" width="20.76923076923077" height="390.0" fill="orange" fill-opacity="0.5" />
<rect x="258.8461538461538" y="5" width="20.76923076923077" height="390.0" fill="orange" fill-opacity="0.5" />
<rect x="320.38461538461536" y="5" width="20.76923076923077" height="390.0" fill="orange" fill-opacity="0.5" />
<rect x="381.9230769230769" y="5" width="20.76923076923077" height="390.0" fill="orange" fill-opacity="0.5" />
<rect x="443.46153846153845" y="5" width="20.76923076923077" height="390.0" fill="orange" fill-opacity="0.5" />
<rect x="474.2307692307692" y="5" width="20.76923076923077" height="390.0" fill="orange" fill-opacity="0.5" />
<circle cx="115.38461538461539" cy="13.333333333333334" r="10" />
<text x="115.38461538461539" y="13.333333333333334" font-size="12" fill="white" text-anchor="middle" dominant-baseline="middle">1</text>
<circle cx="146.15384615384616" cy="13.333333333333334" r="10" />
<text x="146.15384615384616" y="13.333333333333334" font-size="12" fill="white" text-anchor="middle" dominant-baseline="middle"></text>
<circle cx="176.9230769230769" cy="13.333333333333334" r="10" />
<text x="176.9230769230769" y="13.333333333333334" font-size="12" fill="white" text-anchor="middle" dominant-baseline="middle">2</text>
<circle cx="207.69230769230768" cy="13.333333333333334" r="10" />
<text x="207.69230769230768" y="13.333333333333334" font-size="12" fill="white" text-anchor="middle" dominant-baseline="middle"></text>
<circle cx="238.46153846153845" cy="13.333333333333334" r="10" />
<text x="238.46153846153845" y="13.333333333333334" font-size="12" fill="white" text-anchor="middle" dominant-baseline="middle">3</text>
<circle cx="269.2307692307692" cy="13.333333333333334" r="10" />
<text x="269.2307692307692" y="13.333333333333334" font-size="12" fill="white" text-anchor="middle" dominant-baseline="middle">4</text>
<circle cx="300.0" cy="13.333333333333334" r="10" />
<text x="300.0" y="13.333333333333334" font-size="12" fill="white" text-anchor="middle" dominant-baseline="middle"></text>
<circle cx="330.7692307692308" cy="13.333333333333334" r="10" />
<text x="330.7692307692308" y="13.333333333333334" font-size="12" fill="white" text-anchor="middle" dominant-baseline="middle">5</text>
<circle cx="361.53846153846155" cy="13.333333333333334" r="10" />
<text x="361.53846153846155" y="13.333333333333334" font-size="12" fill="white" text-anchor="middle" dominant-baseline="middle"></text>
<circle cx="392.3076923076923" cy="13.333333333333334" r="10" />
<text x="392.3076923076923" y="13.333333333333334" font-size="12" fill="white" text-anchor="middle" dominant-baseline="middle">6</text>
<circle cx="423.0769230769231" cy="13.333333333333334" r="10" />
<text x="423.0769230769231" y="13.333333333333334" font-size="12" fill="white" text-anchor="middle" dominant-baseline="middle"></text>
<circle cx="453.84615384615387" cy="13.333333333333334" r="10" />
<text x="453.84615384615387" y="13.333333333333334" font-size="12" fill="white" text-anchor="middle" dominant-baseline="middle">7</text>
<circle cx="484.61538461538464" cy="13.333333333333334" r="10" />
<text x="484.61538461538464" y="13.333333333333334" font-size="12" fill="white" text-anchor="middle" dominant-baseline="middle">8</text>
<circle cx="115.38461538461539" cy="40.0" r="10" />
<text x="115.38461538461539" y="40.0" font-size="12" fill="white" text-anchor="middle" dominant-baseline="middle">0</text>
<circle cx="146.15384615384616" cy="40.0" r="10" />
<text x="146.15384615384616" y="40.0" font-size="12" fill="white" text-anchor="middle" dominant-baseline="middle">1</text>
<circle cx="176.9230769230769" cy="40.0" r="10" />
<text x="176.9230769230769" y="40.0" font-size="12" fill="white" text-anchor="middle" dominant-baseline="middle">2</text>
<circle cx="207.69230769230768" cy="40.0" r="10" />
<text x="207.69230769230768" y="40.0" font-size="12" fill="white" text-anchor="middle" dominant-baseline="middle">3</text>
<circle cx="238.46153846153845" cy="40.0" r="10" />
<text x="238.46153846153845" y="40.0" font-size="12" fill="white" text-anchor="middle" dominant-baseline="middle">4</text>
<circle cx="269.2307692307692" cy="40.0" r="10" />
<text x="269.2307692307692" y="40.0" font-size="12" fill="white" text-anchor="middle" dominant-baseline="middle">5</text>
<circle cx="300.0" cy="40.0" r="10" />
<text x="300.0" y="40.0" font-size="12" fill="white" text-anchor="middle" dominant-baseline="middle">6</text>
<circle cx="330.7692307692308" cy="40.0" r="10" />
<text x="330.7692307692308" y="40.0" font-size="12" fill="white" text-anchor="middle" dominant-baseline="middle">7</text>
<circle cx="361.53846153846155" cy="40.0" r="10" />
<text x="361.53846153846155" y="40.0" font-size="12" fill="white" text-anchor="middle" dominant-baseline="middle">8</text>
<circle cx="392.3076923076923" cy="40.0" r="10" />
<text x="392.3076923076923" y="40.0" font-size="12" fill="white" text-anchor="middle" dominant-baseline="middle">9</text>
<circle cx="423.0769230769231" cy="40.0" r="10" />
<text x="423.0769230769231" y="40.0" font-size="12" fill="white" text-anchor="middle" dominant-baseline="middle">10</text>
<circle cx="453.84615384615387" cy="40.0" r="10" />
<text x="453.84615384615387" y="40.0" font-size="12" fill="white" text-anchor="middle" dominant-baseline="middle">11</text>
<circle cx="484.61538461538464" cy="40.0" r="10" />
<text x="484.61538461538464" y="40.0" font-size="12" fill="white" text-anchor="middle" dominant-baseline="middle">12</text>
<circle cx="115.38461538461539" cy="66.66666666666667" r="10" />
<text x="115.38461538461539" y="66.66666666666667" font-size="12" fill="white" text-anchor="middle" dominant-baseline="middle">R</text>
<circle cx="146.15384615384616" cy="66.66666666666667" r="10" />
<text x="146.15384615384616" y="66.66666666666667" font-size="12" fill="white" text-anchor="middle" dominant-baseline="middle">m2</text>
<circle cx="176.9230769230769" cy="66.66666666666667" r="10" />
<text x="176.9230769230769" y="66.66666666666667" font-size="12" fill="white" text-anchor="middle" dominant-baseline="middle">M2</text>
<circle cx="207.69230769230768" cy="66.66666666666667" r="10" />
<text x="207.69230769230768" y="66.66666666666667" font-size="12" fill="white" text-anchor="middle" dominant-baseline="middle">m3</text>
<circle cx="238.46153846153845" cy="66.66666666666667" r="10" />
<text x="238.46153846153845" y="66.66666666666667" font-size="12" fill="white" text-anchor="middle" dominant-baseline="middle">M3</text>
<circle cx="269.2307692307692" cy="66.66666666666667" r="10" />
<text x="269.2307692307692" y="66.66666666666667" font-size="12" fill="white" text-anchor="middle" dominant-baseline="middle">P4</text>
<circle cx="300.0" cy="66.66666666666667" r="10" />
<text x="300.0" y="66.66666666666667" font-size="12" fill="white" text-anchor="middle" dominant-baseline="middle">TT</text>
<circle cx="330.7692307692308" cy="66.66666666666667" r="10" />
<text x="330.7692307692308" y="66.66666666666667" font-size="12" fill="white" text-anchor="middle" dominant-baseline="middle">P5</text>
<circle cx="361.53846153846155" cy="66.66666666666667" r="10" />
<text x="361.53846153846155" y="66.66666666666667" font-size="12" fill="white" text-anchor="middle" dominant-baseline="middle">m6</text>
<circle cx="392.3076923076923" cy="66.66666666666667" r="10" />
<text x="392.3076923076923" y="66.66666666666667" font-size="12" fill="white" text-anchor="middle" dominant-baseline="middle">M6</text>
<circle cx="423.0769230769231" cy="66.66666666666667" r="10" />
<text x="423.0769230769231" y="66.66666666666667" font-size="12" fill="white" text-anchor="middle" dominant-baseline="middle">m7</text>
<circle cx="453.84615384615387" cy="66.66666666666667" r="10" />
<text x="453.84615384615387" y="66.66666666666667" font-size="12" fill="white" text-anchor="middle" dominant-baseline="middle">M7</text>
<circle cx="484.61538461538464" cy="66.66666666666667" r="10" />
<text x="484.61538461538464" y="66.66666666666667" font-size="12" fill="white" text-anchor="middle" dominant-baseline="middle">Oct</text>
<circle cx="115.38461538461539" cy="93.33333333333334" r="10" />
<text x="115.38461538461539" y="93.33333333333334" font-size="12" fill="white" text-anchor="middle" dominant-baseline="middle">C</text>
<circle cx="146.15384615384616" cy="93.33333333333334" r="10" />
<text x="146.15384615384616" y="93.33333333333334" font-size="12" fill="white" text-anchor="middle" dominant-baseline="middle">C#</text>
<circle cx="176.9230769230769" cy="93.33333333333334" r="10" />
<text x="176.9230769230769" y="93.33333333333334" font-size="12" fill="white" text-anchor="middle" dominant-baseline="middle">D</text>
<circle cx="207.69230769230768" cy="93.33333333333334" r="10" />
<text x="207.69230769230768" y="93.33333333333334" font-size="12" fill="white" text-anchor="middle" dominant-baseline="middle">D#</text>
<circle cx="238.46153846153845" cy="93.33333333333334" r="10" />
<text x="238.46153846153845" y="93.33333333333334" font-size="12" fill="white" text-anchor="middle" dominant-baseline="middle">E</text>
<circle cx="269.2307692307692" cy="93.33333333333334" r="10" />
<text x="269.2307692307692" y="93.33333333333334" font-size="12" fill="white" text-anchor="middle" dominant-baseline="middle">F</text>
<circle cx="300.0" cy="93.33333333333334" r="10" />
<text x="300.0" y="93.33333333333334" font-size="12" fill="white" text-anchor="middle" dominant-baseline="middle">F#</text>
<circle cx="330.7692307692308" cy="93.33333333333334" r="10" />
<text x="330.7692307692308" y="93.33333333333334" font-size="12" fill="white" text-anchor="middle" dominant-baseline="middle">G</text>
<circle cx="361.53846153846155" cy="93.33333333333334" r="10" />
<text x="361.53846153846155" y="93.33333333333334" font-size="12" fill="white" text-anchor="middle" dominant-baseline="middle">G#</text>
<circle cx="392.3076923076923" cy="93.33333333333334" r="10" />
<text x="392.3076923076923" y="93.33333333333334" font-size="12" fill="white" text-anchor="middle" dominant-baseline="middle">A</text>
<circle cx="423.0769230769231" cy="93.33333333333334" r="10" />
<text x="423.0769230769231" y="93.33333333333334" font-size="12" fill="white" text-anchor="middle" dominant-baseline="middle">A#</text>
<circle cx="453.84615384615387" cy="93.33333333333334" r="10" />
<text x="453.84615384615387" y="93.33333333333334" font-size="12" fill="white" text-anchor="middle" dominant-baseline="middle">B</text>
<circle cx="484.61538461538464" cy="93.33333333333334" r="10" />
<text x="484.61538461538464" y="93.33333333333334" font-size="12" fill="white" text-anchor="middle" dominant-baseline="middle">C</text>
<circle cx="115.38461538461539" cy="120.0" r="10" />
<text x="115.38461538461539" y="120.0" font-size="12" fill="white" text-anchor="middle" dominant-baseline="middle">C#</text>
<circle cx="146.15384615384616" cy="120.0" r="10" />
<text x="146.15384615384616" y="120.0" font-size="12" fill="white" text-anchor="middle" dominant-baseline="middle">D</text>
<circle cx="176.9230769230769" cy="120.0" r="10" />
<text x="176.9230769230769" y="120.0" font-size="12" fill="white" text-anchor="middle" dominant-baseline="middle">D#</text>
<circle cx="207.69230769230768" cy="120.0" r="10" />
<text x="207.69230769230768" y="120.0" font-size="12" fill="white" text-anchor="middle" dominant-baseline="middle">E</text>
<circle cx="238.46153846153845" cy="120.0" r="10" />
<text x="238.46153846153845" y="120.0" font-size="12" fill="white" text-anchor="middle" dominant-baseline="middle">F</text>
<circle cx="269.2307692307692" cy="120.0" r="10" />
<text x="269.2307692307692" y="120.0" font-size="12" fill="white" text-anchor="middle" dominant-baseline="middle">F#</text>
<circle cx="300.0" cy="120.0" r="10" />
<text x="300.0" y="120.0" font-size="12" fill="white" text-anchor="middle" dominant-baseline="middle">G</text>
<circle cx="330.7692307692308" cy="120.0" r="10" />
<text x="330.7692307692308" y="120.0" font-size="12" fill="white" text-anchor="middle" dominant-baseline="middle">G#</text>
<circle cx="361.53846153846155" cy="120.0" r="10" />
<text x="361.53846153846155" y="120.0" font-size="12" fill="white" text-anchor="middle" dominant-baseline="middle">A</text>
<circle cx="392.3076923076923" cy="120.0" r="10" />
<text x="392.3076923076923" y="120.0" font-size="12" fill="white" text-anchor="middle" dominant-baseline="middle">A#</text>
<circle cx="423.0769230769231" cy="120.0" r="10" />
<text x="423.0769230769231" y="120.0" font-size="12" fill="white" text-anchor="middle" dominant-baseline="middle">B</text>
<circle cx="453.84615384615387" cy="120.0" r="10" />
<text x="453.84615384615387" y="120.0" font-size="12" fill="white" text-anchor="middle" dominant-baseline="middle">C</text>
<circle cx="484.61538461538464" cy="120.0" r="10" />
<text x="484.61538461538464" y="120.0" font-size="12" fill="white" text-anchor="middle" dominant-baseline="middle">C#</text>
<circle cx="115.38461538461539" cy="146.66666666666669" r="10" />
<text x="115.38461538461539" y="146.66666666666669" font-size="12" fill="white" text-anchor="middle" dominant-baseline="middle">D</text>
<circle cx="146.15384615384616" cy="146.66666666666669" r="10" />
<text x="146.15384615384616" y="146.66666666666669" font-size="12" fill="white" text-anchor="middle" dominant-baseline="middle">D#</text>
<circle cx="176.9230769230769" cy="146.66666666666669" r="10" />
<text x="176.9230769230769" y="146.66666666666669" font-size="12" fill="white" text-anchor="middle" dominant-baseline="middle">E</text>
<circle cx="207.69230769230768" cy="146.66666666666669" r="10" />
<text x="207.69230769230768" y="146.66666666666669" font-size="12" fill="white" text-anchor="middle" dominant-baseline="middle">F</text>
<circle cx="238.46153846153845" cy="146.66666666666669" r="10" />
<text x="238.46153846153845" y="146.66666666666669" font-size="12" fill="white" text-anchor="middle" dominant-baseline="middle">F#</text>
<circle cx="269.2307692307692" cy="146.66666666666669" r="10" />
<text x="269.2307692307692" y="146.66666666666669" font-size="12" fill="white" text-anchor="middle" dominant-baseline="middle">G</text>
<circle cx="300.0" cy="146.66666666666669" r="10" />
<text x="300.0" y="146.66666666666669" font-size="12" fill="white" text-anchor="middle" dominant-baseline="middle">G#</text>
<circle cx="330.7692307692308" cy="146.66666666666669" r="10" />
<text x="330.7692307692308" y="146.66666666666669" font-size="12" fill="white" text-anchor="middle" dominant-baseline="middle">A</text>
<circle cx="361.53846153846155" cy="146.66666666666669" r="10" />
<text x="361.53846153846155" y="146.66666666666669" font-size="12" fill="white" text-anchor="middle" dominant-baseline="middle">A#</text>
<circle cx="392.3076923076923" cy="146.66666666666669" r="10" />
<text x="392.3076923076923" y="146.66666666666669" font-size="12" fill="white" text-anchor="middle" dominant-baseline="middle">B</text>
<circle cx="423.0769230769231" cy="146.66666666666669" r="10" />
<text x="423.0769230769231" y="146.66666666666669" font-size="12" fill="white" text-anchor="middle" dominant-baseline="middle">C</text>
<circle cx="453.84615384615387" cy="146.66666666666669" r="10" />
<text x="453.84615384615387" y="146.66666666666669" font-size="12" fill="white" text-anchor="middle" dominant-baseline="middle">C#</text>
<circle cx="484.61538461538464" cy="146.66666666666669" r="10" />
<text x="484.61538461538464" y="146.66666666666669" font-size="12" fill="white" text-anchor="middle" dominant-baseline="middle">D</text>
<circle cx="115.38461538461539" cy="173.33333333333334" r="10" />
<text x="115.38461538461539" y="173.33333333333334" font-size="12" fill="white" text-anchor="middle" dominant-baseline="middle">D#</text>
<circle cx="146.15384615384616" cy="173.33333333333334" r="10" />
<text x="146.15384615384616" y="173.33333333333334" font-size="12" fill="white" text-anchor="middle" dominant-baseline="middle">E</text>
<circle cx="176.9230769230769" cy="173.33333333333334" r="10" />
<text x="176.9230769230769" y="173.33333333333334" font-size="12" fill="white" text-anchor="middle" dominant-baseline="middle">F</text>
<circle cx="207.69230769230768" cy="173.33333333333334" r="10" />
<text x="207.69230769230768" y="173.33333333333334" font-size="12" fill="white" text-anchor="middle" dominant-baseline="middle">F#</text>
<circle cx="238.46153846153845" cy="173.33333333333334" r="10" />
<text x="238.46153846153845" y="173.33333333333334" font-size="12" fill="white" text-anchor="middle" dominant-baseline="middle">G</text>
<circle cx="269.2307692307692" cy="173.33333333333334" r="10" />
<text x="269.2307692307692" y="173.33333333333334" font-size="12" fill="white" text-anchor="middle" dominant-baseline="middle">G#</text>
<circle cx="300.0" cy="173.33333333333334" r="10" />
<text x="300.0" y="173.33333333333334" font-size="12" fill="white" text-anchor="middle" dominant-baseline="middle">A</text>
<circle cx="330.7692307692308" cy="173.33333333333334" r="10" />
<text x="330.7692307692308" y="173.33333333333334" font-size="12" fill="white" text-anchor="middle" dominant-baseline="middle">A#</text>
<circle cx="361.53846153846155" cy="173.33333333333334" r="10" />
<text x="361.53846153846155" y="173.33333333333334" font-size="12" fill="white" text-anchor="middle" dominant-baseline="middle">B</text>
<circle cx="392.3076923076923" cy="173.33333333333334" r="10" />
<text x="392.3076923076923" y="173.33333333333334" font-size="12" fill="white" text-anchor="middle" dominant-baseline="middle">C</text>
<circle cx="423.0769230769231" cy="173.33333333333334" r="10" />
<text x="423.0769230769231" y="173.33333333333334" font-size="12" fill="white" text-anchor="middle" dominant-baseline="middle">C#</text>
<circle cx="453.84615384615387" cy="173.33333333333334" r="10" />
<text x="453.84615384615387" y="173.33333333333334" font-size="12" fill="white" text-anchor="middle" dominant-baseline="middle">D</text>
<circle cx="484.61538461538464" cy="173.33333333333334" r="10" />
<text x="484.61538461538464" y="173.33333333333334" font-size="12" fill="white" text-anchor="middle" dominant-baseline="middle">D#</text>
<circle cx="115.38461538461539" cy="200.0" r="10" />
<text x="115.38461538461539" y="200.0" font-size="12" fill="white" text-anchor="middle" dominant-baseline="middle">E</text>
<circle cx="146.15384615384616" cy="200.0" r="10" />
<text x="146.15384615384616" y="200.0" font-size="12" fill="white" text-anchor="middle" dominant-baseline="middle">F</text>
<circle cx="176.9230769230769" cy="200.0" r="10" />
<text x="176.9230769230769" y="200.0" font-size="12" fill="white" text-anchor="middle" dominant-baseline="middle">F#</text>
<circle cx="207.69230769230768" cy="200.0" r="10" />
<text x="207.69230769230768" y="200.0" font-size="12" fill="white" text-anchor="middle" dominant-baseline="middle">G</text>
<circle cx="238.46153846153845" cy="200.0" r="10" />
<text x="238.46153846153845" y="200.0" font-size="12" fill="white" text-anchor="middle" dominant-baseline="middle">G#</text>
<circle cx="269.2307692307692" cy="200.0" r="10" />
<text x="269.2307692307692" y="200.0" font-size="12" fill="white" text-anchor="middle" dominant-baseline="middle">A</text>
<circle cx="300.0" cy="200.0" r="10" />
<text x="300.0" y="200.0" font-size="12" fill="white" text-anchor="middle" dominant-baseline="middle">A#</text>
<circle cx="330.7692307692308" cy="200.0" r="10" />
<text x="330.7692307692308" y="200.0" font-size="12" fill="white" text-anchor="middle" dominant-baseline="middle">B</text>
<circle cx="361.53846153846155" cy="200.0" r="10" />
<text x="361.53846153846155" y="200.0" font-size="12" fill="white" text-anchor="middle" dominant-baseline="middle">C</text>
<circle cx="392.3076923076923" cy="200.0" r="10" />
<text x="392.3076923076923" y="200.0" font-size="12" fill="white" text-anchor="middle" dominant-baseline="middle">C#</text>
<circle cx="423.0769230769231" cy="200.0" r="10" />
<text x="423.0769230769231" y="200.0" font-size="12" fill="white" text-anchor="middle" dominant-baseline="middle">D</text>
<circle cx="453.84615384615387" cy="200.0" r="10" />
<text x="453.84615384615387" y="200.0" font-size="12" fill="white" text-anchor="middle" dominant-baseline="middle">D#</text>
<circle cx="484.61538461538464" cy="200.0" r="10" />
<text x="484.61538461538464" y="200.0" font-size="12" fill="white" text-anchor="middle" dominant-baseline="middle">E</text>
<circle cx="115.38461538461539" cy="226.66666666666669" r="10" />
<text x="115.38461538461539" y="226.66666666666669" font-size="12" fill="white" text-anchor="middle" dominant-baseline="middle">F</text>
<circle cx="146.15384615384616" cy="226.66666666666669" r="10" />
<text x="146.15384615384616" y="226.66666666666669" font-size="12" fill="white" text-anchor="middle" dominant-baseline="middle">F#</text>
<circle cx="176.9230769230769" cy="226.66666666666669" r="10" />
<text x="176.9230769230769" y="226.66666666666669" font-size="12" fill="white" text-anchor="middle" dominant-baseline="middle">G</text>
<circle cx="207.69230769230768" cy="226.66666666666669" r="10" />
<text x="207.69230769230768" y="226.66666666666669" font-size="12" fill="white" text-anchor="middle" dominant-baseline="middle">G#</text>
<circle cx="238.46153846153845" cy="226.66666666666669" r="10" />
<text x="238.46153846153845" y="226.66666666666669" font-size="12" fill="white" text-anchor="middle" dominant-baseline="middle">A</text>
<circle cx="269.2307692307692" cy="226.66666666666669" r="10" />
<text x="269.2307692307692" y="226.66666666666669" font-size="12" fill="white" text-anchor="middle" dominant-baseline="middle">A#</text>
<circle cx="300.0" cy="226.66666666666669" r="10" />
<text x="300.0" y="226.66666666666669" font-size="12" fill="white" text-anchor="middle" dominant-baseline="middle">B</text>
<circle cx="330.7692307692308" cy="226.66666666666669" r="10" />
<text x="330.7692307692308" y="226.66666666666669" font-size="12" fill="white" text-anchor="middle" dominant-baseline="middle">C</text>
<circle cx="361.53846153846155" cy="226.66666666666669" r="10" />
<text x="361.53846153846155" y="226.66666666666669" font-size="12" fill="white" text-anchor="middle" dominant-baseline="middle">C#</text>
<circle cx="392.3076923076923" cy="226.66666666666669" r="10" />
<text x="392.3076923076923" y="226.66666666666669" font-size="12" fill="white" text-anchor="middle" dominant-baseline="middle">D</text>
<circle cx="423.0769230769231" cy="226.66666666666669" r="10" />
<text x="423.0769230769231" y="226.66666666666669" font-size="12" fill="white" text-anchor="middle" dominant-baseline="middle">D#</text>
<circle cx="453.84615384615387" cy="226.66666666666669" r="10" />
<text x="453.84615384615387" y="226.66666666666669" font-size="12" fill="white" text-anchor="middle" dominant-baseline="middle">E</text>
<circle cx="484.61538461538464" cy="226.66666666666669" r="10" />
<text x="484.61538461538464" y="226.66666666666669" font-size="12" fill="white" text-anchor="middle" dominant-baseline="middle">F</text>
<circle cx="115.38461538461539" cy="253.33333333333334" r="10" />
<text x="115.38461538461539" y="253.33333333333334" font-size="12" fill="white" text-anchor="middle" dominant-baseline="middle">F#</text>
<circle cx="146.15384615384616" cy="253.33333333333334" r="10" />
<text x="146.15384615384616" y="253.33333333333334" font-size="12" fill="white" text-anchor="middle" dominant-baseline="middle">G</text>
<circle cx="176.9230769230769" cy="253.33333333333334" r="10" />
<text x="176.9230769230769" y="253.33333333333334" font-size="12" fill="white" text-anchor="middle" dominant-baseline="middle">G#</text>
<circle cx="207.69230769230768" cy="253.33333333333334" r="10" />
<text x="207.69230769230768" y="253.33333333333334" font-size="12" fill="white" text-anchor="middle" dominant-baseline="middle">A</text>
<circle cx="238.46153846153845" cy="253.33333333333334" r="10" />
<text x="238.46153846153845" y="253.33333333333334" font-size="12" fill="white" text-anchor="middle" dominant-baseline="middle">A#</text>
<circle cx="269.2307692307692" cy="253.33333333333334" r="10" />
<text x="269.2307692307692" y="253.33333333333334" font-size="12" fill="white" text-anchor="middle" dominant-baseline="middle">B</text>
<circle cx="300.0" cy="253.33333333333334" r="10" />
<text x="300.0" y="253.33333333333334" font-size="12" fill="white" text-anchor="middle" dominant-baseline="middle">C</text>
<circle cx="330.7692307692308" cy="253.33333333333334" r="10" />
<text x="330.7692307692308" y="253.33333333333334" font-size="12" fill="white" text-anchor="middle" dominant-baseline="middle">C#</text>
<circle cx="361.53846153846155" cy="253.33333333333334" r="10" />
<text x="361.53846153846155" y="253.33333333333334" font-size="12" fill="white" text-anchor="middle" dominant-baseline="middle">D</text>
<circle cx="392.3076923076923" cy="253.33333333333334" r="10" />
<text x="392.3076923076923" y="253.33333333333334" font-size="12" fill="white" text-anchor="middle" dominant-baseline="middle">D#</text>
<circle cx="423.0769230769231" cy="253.33333333333334" r="10" />
<text x="423.0769230769231" y="253.33333333333334" font-size="12" fill="white" text-anchor="middle" dominant-baseline="middle">E</text>
<circle cx="453.84615384615387" cy="253.33333333333334" r="10" />
<text x="453.84615384615387" y="253.33333333333334" font-size="12" fill="white" text-anchor="middle" dominant-baseline="middle">F</text>
<circle cx="484.61538461538464" cy="253.33333333333334" r="10" />
<text x="484.61538461538464" y="253.33333333333334" font-size="12" fill="white" text-anchor="middle" dominant-baseline="middle">F#</text>
<circle cx="115.38461538461539" cy="280.0" r="10" />
<text x="115.38461538461539" y="280.0" font-size="12" fill="white" text-anchor="middle" dominant-baseline="middle">G</text>
<circle cx="146.15384615384616" cy="280.0" r="10" />
<text x="146.15384615384616" y="280.0" font-size="12" fill="white" text-anchor="middle" dominant-baseline="middle">G#</text>
<circle cx="176.9230769230769" cy="280.0" r="10" />
<text x="176.9230769230769" y="280.0" font-size="12" fill="white" text-anchor="middle" dominant-baseline="middle">A</text>
<circle cx="207.69230769230768" cy="280.0" r="10" />
<text x="207.69230769230768" y="280.0" font-size="12" fill="white" text-anchor="middle" dominant-baseline="middle">A#</text>
<circle cx="238.46153846153845" cy="280.0" r="10" />
<text x="238.46153846153845" y="280.0" font-size="12" fill="white" text-anchor="middle" dominant-baseline="middle">B</text>
<circle cx="269.2307692307692" cy="280.0" r="10" />
<text x="269.2307692307692" y="280.0" font-size="12" fill="white" text-anchor="middle" dominant-baseline="middle">C</text>
<circle cx="300.0" cy="280.0" r="10" />
<text x="300.0" y="280.0" font-size="12" fill="white" text-anchor="middle" dominant-baseline="middle">C#</text>
<circle cx="330.7692307692308" cy="280.0" r="10" />
<text x="330.7692307692308" y="280.0" font-size="12" fill="white" text-anchor="middle" dominant-baseline="middle">D</text>
<circle cx="361.53846153846155" cy="280.0" r="10" />
<text x="361.53846153846155" y="280.0" font-size="12" fill="white" text-anchor="middle" dominant-baseline="middle">D#</text>
<circle cx="392.3076923076923" cy="280.0" r="10" />
<text x="392.3076923076923" y="280.0" font-size="12" fill="white" text-anchor="middle" dominant-baseline="middle">E</text>
<circle cx="423.0769230769231" cy="280.0" r="10" />
<text x="423.0769230769231" y="280.0" font-size="12" fill="white" text-anchor="middle" dominant-baseline="middle">F</text>
<circle cx="453.84615384615387" cy="280.0" r="10" />
<text x="453.84615384615387" y="280.0" font-size="12" fill="white" text-anchor="middle" dominant-baseline="middle">F#</text>
<circle cx="484.61538461538464" cy="280.0" r="10" />
<text x="484.61538461538464" y="280.0" font-size="12" fill="white" text-anchor="middle" dominant-baseline="middle">G</text>
<circle cx="115.38461538461539" cy="306.6666666666667" r="10" />
<text x="115.38461538461539" y="306.6666666666667" font-size="12" fill="white" text-anchor="middle" dominant-baseline="middle">G#</text>
<circle cx="146.15384615384616" cy="306.6666666666667" r="10" />
<text x="146.15384615384616" y="306.6666666666667" font-size="12" fill="white" text-anchor="middle" dominant-baseline="middle">A</text>
<circle cx="176.9230769230769" cy="306.6666666666667" r="10" />
<text x="176.9230769230769" y="306.6666666666667" font-size="12" fill="white" text-anchor="middle" dominant-baseline="middle">A#</text>
<circle cx="207.69230769230768" cy="306.6666666666667" r="10" />
<text x="207.69230769230768" y="306.6666666666667" font-size="12" fill="white" text-anchor="middle" dominant-baseline="middle">B</text>
<circle cx="238.46153846153845" cy="306.6666666666667" r="10" />
<text x="238.46153846153845" y="306.6666666666667" font-size="12" fill="white" text-anchor="middle" dominant-baseline="middle">C</text>
<circle cx="269.2307692307692" cy="306.6666666666667" r="10" />
<text x="269.2307692307692" y="306.6666666666667" font-size="12" fill="white" text-anchor="middle" dominant-baseline="middle">C#</text>
<circle cx="300.0" cy="306.6666666666667" r="10" />
<text x="300.0" y="306.6666666666667" font-size="12" fill="white" text-anchor="middle" dominant-baseline="middle">D</text>
<circle cx="330.7692307692308" cy="306.6666666666667" r="10" />
<text x="330.7692307692308" y="306.6666666666667" font-size="12" fill="white" text-anchor="middle" dominant-baseline="middle">D#</text>
<circle cx="361.53846153846155" cy="306.6666666666667" r="10" />
<text x="361.53846153846155" y="306.6666666666667" font-size="12" fill="white" text-anchor="middle" dominant-baseline="middle">E</text>
<circle cx="392.3076923076923" cy="306.6666666666667" r="10" />
<text x="392.3076923076923" y="306.6666666666667" font-size="12" fill="white" text-anchor="middle" dominant-baseline="middle">F</text>
<circle cx="423.0769230769231" cy="306.6666666666667" r="10" />
<text x="423.0769230769231" y="306.6666666666667" font-size="12" fill="white" text-anchor="middle" dominant-baseline="middle">F#</text>
<circle cx="453.84615384615387" cy="306.6666666666667" r="10" />
<text x="453.84615384615387" y="306.6666666666667" font-size="12" fill="white" text-anchor="middle" dominant-baseline="middle">G</text>
<circle cx="484.61538461538464" cy="306.6666666666667" r="10" />
<text x="484.61538461538464" y="306.6666666666667" font-size="12" fill="white" text-anchor="middle" dominant-baseline="middle">G#</text>
<circle cx="115.38461538461539" cy="333.33333333333337" r="10" />
<text x="115.38461538461539" y="333.33333333333337" font-size="12" fill="white" text-anchor="middle" dominant-baseline="middle">A</text>
<circle cx="146.15384615384616" cy="333.33333333333337" r="10" />
<text x="146.15384615384616" y="333.33333333333337" font-size="12" fill="white" text-anchor="middle" dominant-baseline="middle">A#</text>
<circle cx="176.9230769230769" cy="333.33333333333337" r="10" />
<text x="176.9230769230769" y="333.33333333333337" font-size="12" fill="white" text-anchor="middle" dominant-baseline="middle">B</text>
<circle cx="207.69230769230768" cy="333.33333333333337" r="10" />
<text x="207.69230769230768" y="333.33333333333337" font-size="12" fill="white" text-anchor="middle" dominant-baseline="middle">C</text>
<circle cx="238.46153846153845" cy="333.33333333333337" r="10" />
<text x="238.46153846153845" y="333.33333333333337" font-size="12" fill="white" text-anchor="middle" dominant-baseline="middle">C#</text>
<circle cx="269.2307692307692" cy="333.33333333333337" r="10" />
<text x="269.2307692307692" y="333.33333333333337" font-size="12" fill="white" text-anchor="middle" dominant-baseline="middle">D</text>
<circle cx="300.0" cy="333.33333333333337" r="10" />
<text x="300.0" y="333.33333333333337" font-size="12" fill="white" text-anchor="middle" dominant-baseline="middle">D#</text>
<circle cx="330.7692307692308" cy="333.33333333333337" r="10" />
<text x="330.7692307692308" y="333.33333333333337" font-size="12" fill="white" text-anchor="middle" dominant-baseline="middle">E</text>
<circle cx="361.53846153846155" cy="333.33333333333337" r="10" />
<text x="361.53846153846155" y="333.33333333333337" font-size="12" fill="white" text-anchor="middle" dominant-baseline="middle">F</text>
<circle cx="392.3076923076923" cy="333.33333333333337" r="10" />
<text x="392.3076923076923" y="333.33333333333337" font-size="12" fill="white" text-anchor="middle" dominant-baseline="middle">F#</text>
<circle cx="423.0769230769231" cy="333.33333333333337" r="10" />
<text x="423.0769230769231" y="333.33333333333337" font-size="12" fill="white" text-anchor="middle" dominant-baseline="middle">G</text>
<circle cx="453.84615384615387" cy="333.33333333333337" r="10" />
<text x="453.84615384615387" y="333.33333333333337" font-size="12" fill="white" text-anchor="middle" dominant-baseline="middle">G#</text>
<circle cx="484.61538461538464" cy="333.33333333333337" r="10" />
<text x="484.61538461538464" y="333.33333333333337" font-size="12" fill="white" text-anchor="middle" dominant-baseline="middle">A</text>
<circle cx="115.38461538461539" cy="360.0" r="10" />
<text x="115.38461538461539" y="360.0" font-size="12" fill="white" text-anchor="middle" dominant-baseline="middle">A#</text>
<circle cx="146.15384615384616" cy="360.0" r="10" />
<text x="146.15384615384616" y="360.0" font-size="12" fill="white" text-anchor="middle" dominant-baseline="middle">B</text>
<circle cx="176.9230769230769" cy="360.0" r="10" />
<text x="176.9230769230769" y="360.0" font-size="12" fill="white" text-anchor="middle" dominant-baseline="middle">C</text>
<circle cx="207.69230769230768" cy="360.0" r="10" />
<text x="207.69230769230768" y="360.0" font-size="12" fill="white" text-anchor="middle" dominant-baseline="middle">C#</text>
<circle cx="238.46153846153845" cy="360.0" r="10" />
<text x="238.46153846153845" y="360.0" font-size="12" fill="white" text-anchor="middle" dominant-baseline="middle">D</text>
<circle cx="269.2307692307692" cy="360.0" r="10" />
<text x="269.2307692307692" y="360.0" font-size="12" fill="white" text-anchor="middle" dominant-baseline="middle">D#</text>
<circle cx="300.0" cy="360.0" r="10" />
<text x="300.0" y="360.0" font-size="12" fill="white" text-anchor="middle" dominant-baseline="middle">E</text>
<circle cx="330.7692307692308" cy="360.0" r="10" />
<text x="330.7692307692308" y="360.0" font-size="12" fill="white" text-anchor="middle" dominant-baseline="middle">F</text>
<circle cx="361.53846153846155" cy="360.0" r="10" />
<text x="361.53846153846155" y="360.0" font-size="12" fill="white" text-anchor="middle" dominant-baseline="middle">F#</text>
<circle cx="392.3076923076923" cy="360.0" r="10" />
<text x="392.3076923076923" y="360.0" font-size="12" fill="white" text-anchor="middle" dominant-baseline="middle">G</text>
<circle cx="423.0769230769231" cy="360.0" r="10" />
<text x="423.0769230769231" y="360.0" font-size="12" fill="white" text-anchor="middle" dominant-baseline="middle">G#</text>
<circle cx="453.84615384615387" cy="360.0" r="10" />
<text x="453.84615384615387" y="360.0" font-size="12" fill="white" text-anchor="middle" dominant-baseline="middle">A</text>
<circle cx="484.61538461538464" cy="360.0" r="10" />
<text x="484.61538461538464" y="360.0" font-size="12" fill="white" text-anchor="middle" dominant-baseline="middle">A#</text>
<circle cx="115.38461538461539" cy="386.6666666666667" r="10" />
<text x="115.38461538461539" y="386.6666666666667" font-size="12" fill="white" text-anchor="middle" dominant-baseline="middle">B</text>
<circle cx="146.15384615384616" cy="386.6666666666667" r="10" />
<text x="146.15384615384616" y="386.6666666666667" font-size="12" fill="white" text-anchor="middle" dominant-baseline="middle">C</text>
<circle cx="176.9230769230769" cy="386.6666666666667" r="10" />
<text x="176.9230769230769" y="386.6666666666667" font-size="12" fill="white" text-anchor="middle" dominant-baseline="middle">C#</text>
<circle cx="207.69230769230768" cy="386.6666666666667" r="10" />
<text x="207.69230769230768" y="386.6666666666667" font-size="12" fill="white" text-anchor="middle" dominant-baseline="middle">D</text>
<circle cx="238.46153846153845" cy="386.6666666666667" r="10" />
<text x="238.46153846153845" y="386.6666666666667" font-size="12" fill="white" text-anchor="middle" dominant-baseline="middle">D#</text>
<circle cx="269.2307692307692" cy="386.6666666666667" r="10" />
<text x="269.2307692307692" y="386.6666666666667" font-size="12" fill="white" text-anchor="middle" dominant-baseline="middle">E</text>
<circle cx="300.0" cy="386.6666666666667" r="10" />
<text x="300.0" y="386.6666666666667" font-size="12" fill="white" text-anchor="middle" dominant-baseline="middle">F</text>
<circle cx="330.7692307692308" cy="386.6666666666667" r="10" />
<text x="330.7692307692308" y="386.6666666666667" font-size="12" fill="white" text-anchor="middle" dominant-baseline="middle">F#</text>
<circle cx="361.53846153846155" cy="386.6666666666667" r="10" />
<text x="361.53846153846155" y="386.6666666666667" font-size="12" fill="white" text-anchor="middle" dominant-baseline="middle">G</text>
<circle cx="392.3076923076923" cy="386.6666666666667" r="10" />
<text x="392.3076923076923" y="386.6666666666667" font-size="12" fill="white" text-anchor="middle" dominant-baseline="middle">G#</text>
<circle cx="423.0769230769231" cy="386.6666666666667" r="10" />
<text x="423.0769230769231" y="386.6666666666667" font-size="12" fill="white" text-anchor="middle" dominant-baseline="middle">A</text>
<circle cx="453.84615384615387" cy="386.6666666666667" r="10" />
<text x="453.84615384615387" y="386.6666666666667" font-size="12" fill="white" text-anchor="middle" dominant-baseline="middle">A#</text>
<circle cx="484.61538461538464" cy="386.6666666666667" r="10" />
<text x="484.61538461538464" y="386.6666666666667" font-size="12" fill="white" text-anchor="middle" dominant-baseline="middle">B</text>
<text x="90.0" y="13.333333333333334" font-size="12" fill="black" text-anchor="end" dominant-baseline="middle">scale degrees</text>
<text x="90.0" y="40.0" font-size="12" fill="black" text-anchor="end" dominant-baseline="middle">semitones</text>
<text x="90.0" y="66.66666666666667" font-size="12" fill="black" text-anchor="end" dominant-baseline="middle">intervals</text>
<text x="90.0" y="93.33333333333334" font-size="12" fill="black" text-anchor="end" dominant-baseline="middle">C</text>
<text x="90.0" y="120.0" font-size="12" fill="black" text-anchor="end" dominant-baseline="middle">C#</text>
<text x="90.0" y="146.66666666666669" font-size="12" fill="black" text-anchor="end" dominant-baseline="middle">D</text>
<text x="90.0" y="173.33333333333334" font-size="12" fill="black" text-anchor="end" dominant-baseline="middle">D#</text>
<text x="90.0" y="200.0" font-size="12" fill="black" text-anchor="end" dominant-baseline="middle">E</text>
<text x="90.0" y="226.66666666666669" font-size="12" fill="black" text-anchor="end" dominant-baseline="middle">F</text>
<text x="90.0" y="253.33333333333334" font-size="12" fill="black" text-anchor="end" dominant-baseline="middle">F#</text>
<text x="90.0" y="280.0" font-size="12" fill="black" text-anchor="end" dominant-baseline="middle">G</text>
<text x="90.0" y="306.6666666666667" font-size="12" fill="black" text-anchor="end" dominant-baseline="middle">G#</text>
<text x="90.0" y="333.33333333333337" font-size="12" fill="black" text-anchor="end" dominant-baseline="middle">A</text>
<text x="90.0" y="360.0" font-size="12" fill="black" text-anchor="end" dominant-baseline="middle">A#</text>
<text x="90.0" y="386.6666666666667" font-size="12" fill="black" text-anchor="end" dominant-baseline="middle">B</text>
</svg>