<?xml version="1.0" encoding="UTF-8"?>
<svg xmlns="http://www.w3.org/2000/svg" xmlns:xlink="http://www.w3.org/1999/xlink"
     width="650" height="50" viewBox="0 0 650 50">
<defs>
</defs>
<circle cx="25.0" cy="25.0" r="20" fill="red" stroke="black" />
<text x="25.0" y="25.0" font-size="12" text-anchor="middle" dominant-baseline="middle" fill="black">P1</text>
<circle cx="75.0" cy="25.0" r="20" fill="black" stroke="white" />
<text x="75.0" y="25.0" font-size="12" text-anchor="middle" dominant-baseline="middle" fill="white">m2</text>
<circle cx="125.0" cy="25.0" r="20" fill="black" stroke="white" />
<text x="125.0" y="25.0" font-size="12" text-anchor="middle" dominant-baseline="middle" fill="white">M2</text>
<circle cx="175.0" cy="25.0" r="20" fill="black" stroke="white" />
<text x="175.0" y="25.0" font-size="12" text-anchor="middle" dominant-baseline="middle" fill="white">m3</text>
<circle cx="225.0" cy="25.0" r="20" fill="black" stroke="white" />
<text x="225.0" y="25.0" font-size="12" text-anchor="middle" dominant-baseline="middle" fill="white">M3</text>
<circle cx="275.0" cy="25.0" r="20" fill="black" stroke="white" />
<text x="275.0" y="25.0" font-size="12" text-anchor="middle" dominant-baseline="middle" fill="white">P4</text>
<circle cx="325.0" cy="25.0" r="20" fill="black" stroke="white" />
<text x="325.0" y="25.0" font-size="12" text-anchor="middle" dominant-baseline="middle" fill="white">TT</text>
<circle cx="375.0" cy="25.0" r="20" fill="black" stroke="white" />
<text x="375.0" y="25.0" font-size="12" text-anchor="middle" dominant-baseline="middle" fill="white">P5</text>
<circle cx="425.0" cy="25.0" r="20" fill="black" stroke="white" />
<text x="425.0" y="25.0" font-size="12" text-anchor="middle" dominant-baseline="middle" fill="white">m6</text>
<circle cx="475.0" cy="25.0" r="20" fill="black" stroke="white" />
<text x="475.0" y="25.0" font-size="12" text-anchor="middle" dominant-baseline="middle" fill="white">M6</text>
<circle cx="525.0" cy="25.0" r="20" fill="black" stroke="white" />
<text x="525.0" y="25.0" font-size="12" text-anchor="middle" dominant-baseline="middle" fill="white">m7</text>
<circle cx="575.0" cy="25.0" r="20" fill="black" stroke="white" />
<text x="575.0" y="25.0" font-size="12" text-anchor="middle" dominant-baseline="middle" fill="white">M7</text>
<circle cx="625.0" cy="25.0" r="20" fill="red" stroke="black" />
<text x="625.0" y="25.0" font-size="12" text-anchor="middle" dominant-baseline="middle" fill="black">P8</text>
</svg>