<?xml version="1.0" encoding="UTF-8"?>
<svg xmlns="http://www.w3.org/2000/svg" xmlns:xlink="http://www.w3.org/1999/xlink"
     width="380" height="780" viewBox="0 0 380 780">
<defs>
</defs>
<path d="M15,15 L15,765" stroke="black" />
<path d="M40,15 L40,765" stroke="black" />
<path d="M65,15 L65,765" stroke="black" />
<path d="M90,15 L90,765" stroke="black" />
<path d="M115,15 L115,765" stroke="black" />
<path d="M140,15 L140,765" stroke="black" />
<path d="M165,15 L165,765" stroke="black" />
<path d="M190,15 L190,765" stroke="black" />
<path d="M215,15 L215,765" stroke="black" />
<path d="M240,15 L240,765" stroke="black" />
<path d="M265,15 L265,765" stroke="black" />
<path d="M290,15 L290,765" stroke="black" />
<path d="M315,15 L315,765" stroke="black" />
<path d="M340,15 L340,765" stroke="black" />
<path d="M365,15 L365,765" stroke="black" />
<path d="M15,15 L365,15" stroke="black" />
<path d="M15,65 L365,65" stroke="black" />
<path d="M15,115 L365,115" stroke="black" />
<path d="M15,165 L365,165" stroke="black" />
<path d="M15,215 L365,215" stroke="black" />
<path d="M15,265 L365,265" stroke="black" />
<path d="M15,315 L365,315" stroke="black" />
<path d="M15,365 L365,365" stroke="black" />
<path d="M15,415 L365,415" stroke="black" />
<path d="M15,465 L365,465" stroke="black" />
<path d="M15,515 L365,515" stroke="black" />
<path d="M15,565 L365,565" stroke="black" />
<path d="M15,615 L365,615" stroke="black" />
<path d="M15,665 L365,665" stroke="black" />
<path d="M15,715 L365,715" stroke="black" />
<path d="M15,765 L365,765" stroke="black" />
<circle cx="65" cy="40.0" r="10" fill="black" stroke-width="2" stroke="black" />
<text x="65" y="40.0" font-size="12" fill="white" text-anchor="middle" dominant-baseline="middle">M3</text>
<circle cx="90" cy="40.0" r="10" fill="black" stroke-width="2" stroke="black" />
<text x="90" y="40.0" font-size="12" fill="white" text-anchor="middle" dominant-baseline="middle">M6</text>
<circle cx="115" cy="40.0" r="10" fill="black" stroke-width="2" stroke="black" />
<text x="115" y="40.0" font-size="12" fill="white" text-anchor="middle" dominant-baseline="middle">M2</text>
<circle cx="140" cy="40.0" r="10" fill="black" stroke-width="2" stroke="black" />
<text x="140" y="40.0" font-size="12" fill="white" text-anchor="middle" dominant-baseline="middle">P5</text>
<circle cx="165" cy="40.0" r="10" fill="red" stroke-width="2" stroke="black" />
<text x="165" y="40.0" font-size="12" fill="black" text-anchor="middle" dominant-baseline="middle">R</text>
<circle cx="365" cy="40.0" r="10" fill="black" stroke-width="2" stroke="black" />
<text x="365" y="40.0" font-size="12" fill="white" text-anchor="middle" dominant-baseline="middle">M3</text>
<circle cx="15" cy="90.0" r="10" fill="black" stroke-width="2" stroke="black" />
<text x="15" y="90.0" font-size="12" fill="white" text-anchor="middle" dominant-baseline="middle">P5</text>
<circle cx="40" cy="90.0" r="10" fill="red" stroke-width="2" stroke="black" />
<text x="40" y="90.0" font-size="12" fill="black" text-anchor="middle" dominant-baseline="middle">R</text>
<circle cx="240" cy="90.0" r="10" fill="black" stroke-width="2" stroke="black" />
<text x="240" y="90.0" font-size="12" fill="white" text-anchor="middle" dominant-baseline="middle">M3</text>
<circle cx="265" cy="90.0" r="10" fill="black" stroke-width="2" stroke="black" />
<text x="265" y="90.0" font-size="12" fill="white" text-anchor="middle" dominant-baseline="middle">M6</text>
<circle cx="290" cy="90.0" r="10" fill="black" stroke-width="2" stroke="black" />
<text x="290" y="90.0" font-size="12" fill="white" text-anchor="middle" dominant-baseline="middle">M2</text>
<circle cx="315" cy="90.0" r="10" fill="black" stroke-width="2" stroke="black" />
<text x="315" y="90.0" font-size="12" fill="white" text-anchor="middle" dominant-baseline="middle">P5</text>
<circle cx="340" cy="90.0" r="10" fill="red" stroke-width="2" stroke="black" />
<text x="340" y="90.0" font-size="12" fill="black" text-anchor="middle" dominant-baseline="middle">R</text>
<circle cx="115" cy="140.0" r="10" fill="black" stroke-width="2" stroke="black" />
<text x="115" y="140.0" font-size="12" fill="white" text-anchor="middle" dominant-baseline="middle">M3</text>
<circle cx="140" cy="140.0" r="10" fill="black" stroke-width="2" stroke="black" />
<text x="140" y="140.0" font-size="12" fill="white" text-anchor="middle" dominant-baseline="middle">M6</text>
<circle cx="165" cy="140.0" r="10" fill="black" stroke-width="2" stroke="black" />
<text x="165" y="140.0" font-size="12" fill="white" text-anchor="middle" dominant-baseline="middle">M2</text>
<circle cx="190" cy="140.0" r="10" fill="black" stroke-width="2" stroke="black" />
<text x="190" y="140.0" font-size="12" fill="white" text-anchor="middle" dominant-baseline="middle">P5</text>
<circle cx="215" cy="140.0" r="10" fill="red" stroke-width="2" stroke="black" />
<text x="215" y="140.0" font-size="12" fill="black" text-anchor="middle" dominant-baseline="middle">R</text>
<circle cx="15" cy="190.0" r="10" fill="black" stroke-width="2" stroke="black" />
<text x="15" y="190.0" font-size="12" fill="white" text-anchor="middle" dominant-baseline="middle">M6</text>
<circle cx="40" cy="190.0" r="10" fill="black" stroke-width="2" stroke="black" />
<text x="40" y="190.0" font-size="12" fill="white" text-anchor="middle" dominant-baseline="middle">M2</text>
<circle cx="65" cy="190.0" r="10" fill="black" stroke-width="2" stroke="black" />
<text x="65" y="190.0" font-size="12" fill="white" text-anchor="middle" dominant-baseline="middle">P5</text>
<circle cx="90" cy="190.0" r="10" fill="red" stroke-width="2" stroke="black" />
<text x="90" y="190.0" font-size="12" fill="black" text-anchor="middle" dominant-baseline="middle">R</text>
<circle cx="290" cy="190.0" r="10" fill="black" stroke-width="2" stroke="black" />
<text x="290" y="190.0" font-size="12" fill="white" text-anchor="middle" dominant-baseline="middle">M3</text>
<circle cx="315" cy="190.0" r="10" fill="black" stroke-width="2" stroke="black" />
<text x="315" y="190.0" font-size="12" fill="white" text-anchor="middle" dominant-baseline="middle">M6</text>
<circle cx="340" cy="190.0" r="10" fill="black" stroke-width="2" stroke="black" />
<text x="340" y="190.0" font-size="12" fill="white" text-anchor="middle" dominant-baseline="middle">M2</text>
<circle cx="365" cy="190.0" r="10" fill="black" stroke-width="2" stroke="black" />
<text x="365" y="190.0" font-size="12" fill="white" text-anchor="middle" dominant-baseline="middle">P5</text>
<circle cx="165" cy="240.0" r="10" fill="black" stroke-width="2" stroke="black" />
<text x="165" y="240.0" font-size="12" fill="white" text-anchor="middle" dominant-baseline="middle">M3</text>
<circle cx="190" cy="240.0" r="10" fill="black" stroke-width="2" stroke="black" />
<text x="190" y="240.0" font-size="12" fill="white" text-anchor="middle" dominant-baseline="middle">M6</text>
<circle cx="215" cy="240.0" r="10" fill="black" stroke-width="2" stroke="black" />
<text x="215" y="240.0" font-size="12" fill="white" text-anchor="middle" dominant-baseline="middle">M2</text>
<circle cx="240" cy="240.0" r="10" fill="black" stroke-width="2" stroke="black" />
<text x="240" y="240.0" font-size="12" fill="white" text-anchor="middle" dominant-baseline="middle">P5</text>
<circle cx="265" cy="240.0" r="10" fill="red" stroke-width="2" stroke="black" />
<text x="265" y="240.0" font-size="12" fill="black" text-anchor="middle" dominant-baseline="middle">R</text>
<circle cx="40" cy="290.0" r="10" fill="black" stroke-width="2" stroke="black" />
<text x="40" y="290.0" font-size="12" fill="white" text-anchor="middle" dominant-baseline="middle">M3</text>
<circle cx="65" cy="290.0" r="10" fill="black" stroke-width="2" stroke="black" />
<text x="65" y="290.0" font-size="12" fill="white" text-anchor="middle" dominant-baseline="middle">M6</text>
<circle cx="90" cy="290.0" r="10" fill="black" stroke-width="2" stroke="black" />
<text x="90" y="290.0" font-size="12" fill="white" text-anchor="middle" dominant-baseline="middle">M2</text>
<circle cx="115" cy="290.0" r="10" fill="black" stroke-width="2" stroke="black" />
<text x="115" y="290.0" font-size="12" fill="white" text-anchor="middle" dominant-baseline="middle">P5</text>
<circle cx="140" cy="290.0" r="10" fill="red" stroke-width="2" stroke="black" />
<text x="140" y="290.0" font-size="12" fill="black" text-anchor="middle" dominant-baseline="middle">R</text>
<circle cx="340" cy="290.0" r="10" fill="black" stroke-width="2" stroke="black" />
<text x="340" y="290.0" font-size="12" fill="white" text-anchor="middle" dominant-baseline="middle">M3</text>
<circle cx="365" cy="290.0" r="10" fill="black" stroke-width="2" stroke="black" />
<text x="365" y="290.0" font-size="12" fill="white" text-anchor="middle" dominant-baseline="middle">M6</text>
<circle cx="15" cy="340.0" r="10" fill="red" stroke-width="2" stroke="black" />
<text x="15" y="340.0" font-size="12" fill="black" text-anchor="middle" dominant-baseline="middle">R</text>
<circle cx="215" cy="340.0" r="10" fill="black" stroke-width="2" stroke="black" />
<text x="215" y="340.0" font-size="12" fill="white" text-anchor="middle" dominant-baseline="middle">M3</text>
<circle cx="240" cy="340.0" r="10" fill="black" stroke-width="2" stroke="black" />
<text x="240" y="340.0" font-size="12" fill="white" text-anchor="middle" dominant-baseline="middle">M6</text>
<circle cx="265" cy="340.0" r="10" fill="black" stroke-width="2" stroke="black" />
<text x="265" y="340.0" font-size="12" fill="white" text-anchor="middle" dominant-baseline="middle">M2</text>
<circle cx="290" cy="340.0" r="10" fill="black" stroke-width="2" stroke="black" />
<text x="290" y="340.0" font-size="12" fill="white" text-anchor="middle" dominant-baseline="middle">P5</text>
<circle cx="315" cy="340.0" r="10" fill="red" stroke-width="2" stroke="black" />
<text x="315" y="340.0" font-size="12" fill="black" text-anchor="middle" dominant-baseline="middle">R</text>
<circle cx="90" cy="390.0" r="10" fill="black" stroke-width="2" stroke="black" />
<text x="90" y="390.0" font-size="12" fill="white" text-anchor="middle" dominant-baseline="middle">M3</text>
<circle cx="115" cy="390.0" r="10" fill="black" stroke-width="2" stroke="black" />
<text x="115" y="390.0" font-size="12" fill="white" text-anchor="middle" dominant-baseline="middle">M6</text>
<circle cx="140" cy="390.0" r="10" fill="black" stroke-width="2" stroke="black" />
<text x="140" y="390.0" font-size="12" fill="white" text-anchor="middle" dominant-baseline="middle">M2</text>
<circle cx="165" cy="390.0" r="10" fill="black" stroke-width="2" stroke="black" />
<text x="165" y="390.0" font-size="12" fill="white" text-anchor="middle" dominant-baseline="middle">P5</text>
<circle cx="190" cy="390.0" r="10" fill="red" stroke-width="2" stroke="black" />
<text x="190" y="390.0" font-size="12" fill="black" text-anchor="middle" dominant-baseline="middle">R</text>
<circle cx="15" cy="440.0" r="10" fill="black" stroke-width="2" stroke="black" />
<text x="15" y="440.0" font-size="12" fill="white" text-anchor="middle" dominant-baseline="middle">M2</text>
<circle cx="40" cy="440.0" r="10" fill="black" stroke-width="2" stroke="black" />
<text x="40" y="440.0" font-size="12" fill="white" text-anchor="middle" dominant-baseline="middle">P5</text>
<circle cx="65" cy="440.0" r="10" fill="red" stroke-width="2" stroke="black" />
<text x="65" y="440.0" font-size="12" fill="black" text-anchor="middle" dominant-baseline="middle">R</text>
<circle cx="265" cy="440.0" r="10" fill="black" stroke-width="2" stroke="black" />
<text x="265" y="440.0" font-size="12" fill="white" text-anchor="middle" dominant-baseline="middle">M3</text>
<circle cx="290" cy="440.0" r="10" fill="black" stroke-width="2" stroke="black" />
<text x="290" y="440.0" font-size="12" fill="white" text-anchor="middle" dominant-baseline="middle">M6</text>
<circle cx="315" cy="440.0" r="10" fill="black" stroke-width="2" stroke="black" />
<text x="315" y="440.0" font-size="12" fill="white" text-anchor="middle" dominant-baseline="middle">M2</text>
<circle cx="340" cy="440.0" r="10" fill="black" stroke-width="2" stroke="black" />
<text x="340" y="440.0" font-size="12" fill="white" text-anchor="middle" dominant-baseline="middle">P5</text>
<circle cx="365" cy="440.0" r="10" fill="red" stroke-width="2" stroke="black" />
<text x="365" y="440.0" font-size="12" fill="black" text-anchor="middle" dominant-baseline="middle">R</text>
<circle cx="140" cy="490.0" r="10" fill="black" stroke-width="2" stroke="black" />
<text x="140" y="490.0" font-size="12" fill="white" text-anchor="middle" dominant-baseline="middle">M3</text>
<circle cx="165" cy="490.0" r="10" fill="black" stroke-width="2" stroke="black" />
<text x="165" y="490.0" font-size="12" fill="white" text-anchor="middle" dominant-baseline="middle">M6</text>
<circle cx="190" cy="490.0" r="10" fill="black" stroke-width="2" stroke="black" />
<text x="190" y="490.0" font-size="12" fill="white" text-anchor="middle" dominant-baseline="middle">M2</text>
<circle cx="215" cy="490.0" r="10" fill="black" stroke-width="2" stroke="black" />
<text x="215" y="490.0" font-size="12" fill="white" text-anchor="middle" dominant-baseline="middle">P5</text>
<circle cx="240" cy="490.0" r="10" fill="red" stroke-width="2" stroke="black" />
<text x="240" y="490.0" font-size="12" fill="black" text-anchor="middle" dominant-baseline="middle">R</text>
<circle cx="15" cy="540.0" r="10" fill="black" stroke-width="2" stroke="black" />
<text x="15" y="540.0" font-size="12" fill="white" text-anchor="middle" dominant-baseline="middle">M3</text>
<circle cx="40" cy="540.0" r="10" fill="black" stroke-width="2" stroke="black" />
<text x="40" y="540.0" font-size="12" fill="white" text-anchor="middle" dominant-baseline="middle">M6</text>
<circle cx="65" cy="540.0" r="10" fill="black" stroke-width="2" stroke="black" />
<text x="65" y="540.0" font-size="12" fill="white" text-anchor="middle" dominant-baseline="middle">M2</text>
<circle cx="90" cy="540.0" r="10" fill="black" stroke-width="2" stroke="black" />
<text x="90" y="540.0" font-size="12" fill="white" text-anchor="middle" dominant-baseline="middle">P5</text>
<circle cx="115" cy="540.0" r="10" fill="red" stroke-width="2" stroke="black" />
<text x="115" y="540.0" font-size="12" fill="black" text-anchor="middle" dominant-baseline="middle">R</text>
<circle cx="315" cy="540.0" r="10" fill="black" stroke-width="2" stroke="black" />
<text x="315" y="540.0" font-size="12" fill="white" text-anchor="middle" dominant-baseline="middle">M3</text>
<circle cx="340" cy="540.0" r="10" fill="black" stroke-width="2" stroke="black" />
<text x="340" y="540.0" font-size="12" fill="white" text-anchor="middle" dominant-baseline="middle">M6</text>
<circle cx="365" cy="540.0" r="10" fill="black" stroke-width="2" stroke="black" />
<text x="365" y="540.0" font-size="12" fill="white" text-anchor="middle" dominant-baseline="middle">M2</text>
<circle cx="190" cy="590.0" r="10" fill="black" stroke-width="2" stroke="black" />
<text x="190" y="590.0" font-size="12" fill="white" text-anchor="middle" dominant-baseline="middle">M3</text>
<circle cx="215" cy="590.0" r="10" fill="black" stroke-width="2" stroke="black" />
<text x="215" y="590.0" font-size="12" fill="white" text-anchor="middle" dominant-baseline="middle">M6</text>
<circle cx="240" cy="590.0" r="10" fill="black" stroke-width="2" stroke="black" />
<text x="240" y="590.0" font-size="12" fill="white" text-anchor="middle" dominant-baseline="middle">M2</text>
<circle cx="265" cy="590.0" r="10" fill="black" stroke-width="2" stroke="black" />
<text x="265" y="590.0" font-size="12" fill="white" text-anchor="middle" dominant-baseline="middle">P5</text>
<circle cx="290" cy="590.0" r="10" fill="red" stroke-width="2" stroke="black" />
<text x="290" y="590.0" font-size="12" fill="black" text-anchor="middle" dominant-baseline="middle">R</text>
<circle cx="65" cy="640.0" r="10" fill="black" stroke-width="2" stroke="black" />
<text x="65" y="640.0" font-size="12" fill="white" text-anchor="middle" dominant-baseline="middle">M3</text>
<circle cx="90" cy="640.0" r="10" fill="black" stroke-width="2" stroke="black" />
<text x="90" y="640.0" font-size="12" fill="white" text-anchor="middle" dominant-baseline="middle">M6</text>
<circle cx="115" cy="640.0" r="10" fill="black" stroke-width="2" stroke="black" />
<text x="115" y="640.0" font-size="12" fill="white" text-anchor="middle" dominant-baseline="middle">M2</text>
<circle cx="140" cy="640.0" r="10" fill="black" stroke-width="2" stroke="black" />
<text x="140" y="640.0" font-size="12" fill="white" text-anchor="middle" dominant-baseline="middle">P5</text>
<circle cx="165" cy="640.0" r="10" fill="red" stroke-width="2" stroke="black" />
<text x="165" y="640.0" font-size="12" fill="black" text-anchor="middle" dominant-baseline="middle">R</text>
<circle cx="365" cy="640.0" r="10" fill="black" stroke-width="2" stroke="black" />
<text x="365" y="640.0" font-size="12" fill="white" text-anchor="middle" dominant-baseline="middle">M3</text>
<circle cx="15" cy="690.0" r="10" fill="black" stroke-width="2" stroke="black" />
<text x="15" y="690.0" font-size="12" fill="white" text-anchor="middle" dominant-baseline="middle">P5</text>
<circle cx="40" cy="690.0" r="10" fill="red" stroke-width="2" stroke="black" />
<text x="40" y="690.0" font-size="12" fill="black" text-anchor="middle" dominant-baseline="middle">R</text>
<circle cx="240" cy="690.0" r="10" fill="black" stroke-width="2" stroke="black" />
<text x="240" y="690.0" font-size="12" fill="white" text-anchor="middle" dominant-baseline="middle">M3</text>
<circle cx="265" cy="690.0" r="10" fill="black" stroke-width="2" stroke="black" />
<text x="265" y="690.0" font-size="12" fill="white" text-anchor="middle" dominant-baseline="middle">M6</text>
<circle cx="290" cy="690.0" r="10" fill="black" stroke-width="2" stroke="black" />
<text x="290" y="690.0" font-size="12" fill="white" text-anchor="middle" dominant-baseline="middle">M2</text>
<circle cx="315" cy="690.0" r="10" fill="black" stroke-width="2" stroke="black" />
<text x="315" y="690.0" font-size="12" fill="white" text-anchor="middle" dominant-baseline="middle">P5</text>
<circle cx="340" cy="690.0" r="10" fill="red" stroke-width="2" stroke="black" />
<text x="340" y="690.0" font-size="12" fill="black" text-anchor="middle" dominant-baseline="middle">R</text>
<circle cx="115" cy="740.0" r="10" fill="black" stroke-width="2" stroke="black" />
<text x="115" y="740.0" font-size="12" fill="white" text-anchor="middle" dominant-baseline="middle">M3</text>
<circle cx="140" cy="740.0" r="10" fill="black" stroke-width="2" stroke="black" />
<text x="140" y="740.0" font-size="12" fill="white" text-anchor="middle" dominant-baseline="middle">M6</text>
<circle cx="165" cy="740.0" r="10" fill="black" stroke-width="2" stroke="black" />
<text x="165" y="740.0" font-size="12" fill="white" text-anchor="middle" dominant-baseline="middle">M2</text>
<circle cx="190" cy="740.0" r="10" fill="black" stroke-width="2" stroke="black" />
<text x="190" y="740.0" font-size="12" fill="white" text-anchor="middle" dominant-baseline="middle">P5</text>
<circle cx="215" cy="740.0" r="10" fill="red" stroke-width="2" stroke="black" />
<text x="215" y="740.0" font-size="12" fill="black" text-anchor="middle" dominant-baseline="middle">R</text>
</svg>